<?xml version="1.0" encoding="UTF-8" standalone="no"?>
<!-- Created with Inkscape (http://www.inkscape.org/) -->

<svg
   xmlns:dc="http://purl.org/dc/elements/1.1/"
   xmlns:cc="http://creativecommons.org/ns#"
   xmlns:rdf="http://www.w3.org/1999/02/22-rdf-syntax-ns#"
   xmlns:svg="http://www.w3.org/2000/svg"
   xmlns="http://www.w3.org/2000/svg"
   xmlns:sodipodi="http://sodipodi.sourceforge.net/DTD/sodipodi-0.dtd"
   xmlns:inkscape="http://www.inkscape.org/namespaces/inkscape"
   width="200"
   height="250"
   id="svg2"
   version="1.1"
   inkscape:version="0.48.4 r9939"
   sodipodi:docname="New document 1">
  <defs
     id="defs4" />
  <sodipodi:namedview
     id="base"
     pagecolor="#ffffff"
     bordercolor="#666666"
     borderopacity="1.0"
     inkscape:pageopacity="0.0"
     inkscape:pageshadow="2"
     inkscape:zoom="2.8"
     inkscape:cx="182.40827"
     inkscape:cy="115.30142"
     inkscape:document-units="px"
     inkscape:current-layer="layer1"
     showgrid="false"
     inkscape:window-width="1855"
     inkscape:window-height="1056"
     inkscape:window-x="65"
     inkscape:window-y="24"
     inkscape:window-maximized="1" />
  <metadata
     id="metadata7">
    <rdf:RDF>
      <cc:Work
         rdf:about="">
        <dc:format>image/svg+xml</dc:format>
        <dc:type
           rdf:resource="http://purl.org/dc/dcmitype/StillImage" />
        <dc:title></dc:title>
      </cc:Work>
    </rdf:RDF>
  </metadata>
  <g
     inkscape:label="Layer 1"
     inkscape:groupmode="layer"
     id="layer1"
     transform="translate(0,-802.36218)">
    <path
       transform="matrix(2.4364771,0,0,-2.498553,-439.62107,2454.0767)"
       d="m 262.13459,562.18567 a 40.658642,39.648487 0 1 1 -81.31728,0 l 40.65864,0 z"
       sodipodi:ry="39.648487"
       sodipodi:rx="40.658642"
       sodipodi:cy="562.18567"
       sodipodi:cx="221.47595"
       id="path3809"
       style="fill:#6f916f;fill-opacity:1;stroke:#000000;stroke-width:0.75884229;stroke-miterlimit:4;stroke-opacity:1;stroke-dasharray:none"
       sodipodi:type="arc"
       sodipodi:start="0"
       sodipodi:end="3.1415927" />
    <path
       sodipodi:type="arc"
       style="fill:#6f916f;fill-opacity:1;stroke:#000000;stroke-width:1.08406043;stroke-miterlimit:4;stroke-opacity:1;stroke-dasharray:none"
       id="path3807"
       sodipodi:cx="221.47595"
       sodipodi:cy="562.18567"
       sodipodi:rx="40.658642"
       sodipodi:ry="39.648487"
       d="m 262.13459,562.18567 a 40.658642,39.648487 0 1 1 -81.31728,0 40.658642,39.648487 0 1 1 81.31728,0 z"
       transform="matrix(1.7055339,0,0,1.7489871,-277.73474,-106.20047)" />
    <path
       style="fill:#000000;fill-opacity:1;stroke:#000000;stroke-width:1.18876624;stroke-miterlimit:4;stroke-opacity:1;stroke-dasharray:none"
       id="path3825"
       d="m 68.325964,860.05413 c 2.021525,-1.77533 4.785824,-2.50733 6.255234,-2.66175 2.305434,-0.23395 1.61444,-0.10263 4.633303,-0.16643 1.739867,-0.0535 4.345757,1.53519 4.779958,1.72034 1.302788,0.72317 1.790921,1.07933 2.016032,1.21742 -3.21567,2.19462 -2.774881,1.90995 -3.294388,2.23133 l 2.966756,-2.25695 0,0 c 0.06552,-0.006 -0.452472,0.42075 -2.751676,2.16554 -0.92868,-0.0376 -0.762566,-0.0913 -1.107564,-0.0765 -1.70183,-0.1163 -3.407858,-0.21762 -5.114393,-0.16861 -2.318252,0.048 -4.638696,0.12225 -6.944298,0.38606 -1.505307,0.16999 -3.007024,0.35855 -4.500314,0.61613 z"
       inkscape:connector-curvature="0"
       sodipodi:nodetypes="cccccccccccccc" />
    <path
       style="fill:#000000;fill-opacity:1;stroke:#000000;stroke-width:1.18876624;stroke-miterlimit:4;stroke-opacity:1;stroke-dasharray:none"
       id="path3829"
       d="m 103.12371,876.90897 c -0.54814,1.55976 -1.31702,3.0286 -2.08568,4.48805 -0.99988,1.83392 -2.029621,3.64933 -2.931639,5.534 -0.346074,0.75065 -0.680983,1.51033 -0.897646,2.30975 -0.06017,0.25539 -0.04559,0.20538 -0.17982,-0.0733 0.681335,-0.0208 1.358345,-0.22626 2.011693,-0.4098 1.576482,-0.53776 3.142322,-1.10682 4.710632,-1.66802 0.68808,-0.25404 1.38277,-0.49381 2.08889,-0.69329 0.36234,-0.18865 1.08395,0.56551 0.0217,1.01048 l -3.22221,0.85301 0,0 c 0.0155,0.0198 7.41846,-2.36854 0.24537,0.41024 -0.67164,0.18922 -1.33319,0.41161 -1.98996,0.64693 -1.577528,0.55153 -3.143222,1.13785 -4.733381,1.65205 -0.705989,0.18782 -1.416201,0.38486 -2.149828,0.4194 -0.533996,0.0878 -0.248338,-0.27703 -0.164704,-0.54898 0.242445,-0.83911 0.605175,-1.63463 0.981649,-2.42092 0.92933,-1.88639 1.950429,-3.72064 2.965764,-5.56204 0.740807,-1.41005 1.483776,-2.83364 1.974255,-4.35405 l 3.354935,-1.59342 z"
       inkscape:connector-curvature="0"
       sodipodi:nodetypes="ccccccccccccccccccccc" />
    <path
       style="fill:#000000;fill-opacity:1;stroke:#000000;stroke-width:1.18876624;stroke-miterlimit:4;stroke-opacity:1;stroke-dasharray:none"
       id="path3835"
       d="m 71.486899,907.9337 c 0.866494,0.74885 1.96367,1.10304 3.041435,1.4229 1.961276,0.47598 3.970049,0.71236 5.976508,0.8972 2.490817,0.14602 4.985822,0.28073 7.481018,0.31781 2.981655,0.0499 5.959019,-0.11471 8.93462,-0.27767 3.14418,-0.22424 6.28309,-0.52227 9.42111,-0.82011 3.08741,-0.33187 6.18321,-0.5774 9.26948,-0.91949 2.56844,-0.22898 5.1172,-0.61822 7.6599,-1.03912 1.73127,-0.29591 3.46278,-0.56982 5.21295,-0.72388 1.05037,-0.082 2.10391,-0.10481 3.15701,-0.11313 0.60469,-0.004 1.2094,-1e-4 1.81409,-0.004 3.64262,-0.36716 -2.28922,1.68075 -2.29109,1.68183 -0.19102,0.10858 0.0997,-0.0618 0.15254,-0.0725 3.59692,0.18211 3.1228,-1.23021 0.0543,0.37005 l 0,0 c -0.003,-0.006 -0.007,-0.0139 -0.01,-0.02 -0.007,-0.0622 -0.004,-0.12522 6.8e-4,-0.18802 5.63112,-4.4204 3.2801,0.58601 -0.14682,0.41804 -0.25432,2.8e-4 -0.50866,-0.008 -0.76298,-0.01 -0.59585,-0.008 -1.19177,-0.01 -1.78766,-0.0119 -1.03225,0.004 -2.06521,0.0206 -3.09455,0.10481 -1.72568,0.15375 -3.43338,0.42964 -5.14337,0.70413 -2.52866,0.39782 -5.06353,0.75639 -7.61427,0.98206 -3.08666,0.32627 -6.18058,0.57875 -9.26668,0.91126 -3.13784,0.29187 -6.276,0.59023 -9.42031,0.80312 -2.992701,0.16959 -5.987813,0.33231 -8.986812,0.28466 -2.509723,-0.044 -5.020487,-0.15731 -7.525056,-0.32003 -2.036987,-0.19635 -4.081922,-0.4195 -6.071209,-0.91658 -1.137675,-0.34016 -2.245311,-0.90327 -3.201502,-1.49561 l 3.146698,-1.96776 z"
       inkscape:connector-curvature="0"
       sodipodi:nodetypes="ccccccccccccccccccccccccccccccc" />
    <path
       sodipodi:nodetypes="cccccccccccccc"
       inkscape:connector-curvature="0"
       d="m 130.73237,860.05413 c -2.02152,-1.77533 -4.78582,-2.50733 -6.25523,-2.66175 -2.30543,-0.23395 -1.61444,-0.10263 -4.6333,-0.16643 -1.73987,-0.0535 -4.34576,1.53519 -4.77996,1.72034 -1.30279,0.72317 -1.79092,1.07933 -2.01603,1.21742 3.21567,2.19462 2.77488,1.90995 3.29438,2.23133 l -2.96675,-2.25695 0,0 c -0.0655,-0.006 0.45247,0.42075 2.75167,2.16554 0.92868,-0.0376 0.76257,-0.0913 1.10757,-0.0765 1.70183,-0.1163 3.40786,-0.21762 5.11439,-0.16861 2.31825,0.048 4.6387,0.12225 6.9443,0.38606 1.50531,0.16999 3.00702,0.35855 4.50031,0.61613 z"
       id="path3849"
       style="fill:#000000;fill-opacity:1;stroke:#000000;stroke-width:1.18876624;stroke-miterlimit:4;stroke-opacity:1;stroke-dasharray:none" />
  </g>
</svg>
